<mxfile host="www.draw.io" modified="2019-10-17T17:12:01.849Z" agent="Mozilla/5.0 (Windows NT 10.0; Win64; x64) AppleWebKit/537.36 (KHTML, like Gecko) Chrome/77.0.3865.120 Safari/537.36" etag="ssatAkUx_feSmvfyNbRp" version="12.1.3" type="github" pages="1">
  <diagram id="gPcRmQW-RGOc-af3P9zx" name="Page-1">
    <mxGraphModel dx="854" dy="468" grid="1" gridSize="10" guides="1" tooltips="1" connect="1" arrows="1" fold="1" page="1" pageScale="1" pageWidth="827" pageHeight="1169" math="0" shadow="0">
      <root>
        <mxCell id="0"/>
        <mxCell id="1" parent="0"/>
        <mxCell id="YwXMWWYpCBF7NSYcL3_9-1" value="" style="ellipse;whiteSpace=wrap;html=1;" parent="1" vertex="1">
          <mxGeometry x="360" y="20" width="80" height="40" as="geometry"/>
        </mxCell>
        <mxCell id="YwXMWWYpCBF7NSYcL3_9-2" value="START" style="text;html=1;strokeColor=none;fillColor=none;align=center;verticalAlign=middle;whiteSpace=wrap;rounded=0;" parent="1" vertex="1">
          <mxGeometry x="380" y="30" width="40" height="20" as="geometry"/>
        </mxCell>
        <mxCell id="YwXMWWYpCBF7NSYcL3_9-3" value="" style="endArrow=classic;html=1;exitX=0.5;exitY=1;exitDx=0;exitDy=0;" parent="1" source="YwXMWWYpCBF7NSYcL3_9-1" edge="1">
          <mxGeometry width="50" height="50" relative="1" as="geometry">
            <mxPoint x="370" y="120" as="sourcePoint"/>
            <mxPoint x="400" y="80" as="targetPoint"/>
          </mxGeometry>
        </mxCell>
        <mxCell id="YwXMWWYpCBF7NSYcL3_9-6" value="" style="shape=parallelogram;perimeter=parallelogramPerimeter;whiteSpace=wrap;html=1;" parent="1" vertex="1">
          <mxGeometry x="340" y="80" width="120" height="40" as="geometry"/>
        </mxCell>
        <mxCell id="YwXMWWYpCBF7NSYcL3_9-7" value="Input an integer number n" style="text;html=1;strokeColor=none;fillColor=none;align=center;verticalAlign=middle;whiteSpace=wrap;rounded=0;" parent="1" vertex="1">
          <mxGeometry x="368.5" y="90" width="63" height="20" as="geometry"/>
        </mxCell>
        <mxCell id="YwXMWWYpCBF7NSYcL3_9-8" value="" style="endArrow=classic;html=1;exitX=0.5;exitY=1;exitDx=0;exitDy=0;" parent="1" source="YwXMWWYpCBF7NSYcL3_9-6" edge="1">
          <mxGeometry width="50" height="50" relative="1" as="geometry">
            <mxPoint x="340" y="210" as="sourcePoint"/>
            <mxPoint x="400" y="140" as="targetPoint"/>
          </mxGeometry>
        </mxCell>
        <mxCell id="YwXMWWYpCBF7NSYcL3_9-9" value="" style="rhombus;whiteSpace=wrap;html=1;" parent="1" vertex="1">
          <mxGeometry x="340" y="140" width="120" height="40" as="geometry"/>
        </mxCell>
        <mxCell id="YwXMWWYpCBF7NSYcL3_9-10" value="n is less than or equal to 2" style="text;html=1;strokeColor=none;fillColor=none;align=center;verticalAlign=middle;whiteSpace=wrap;rounded=0;" parent="1" vertex="1">
          <mxGeometry x="357.5" y="150" width="85" height="20" as="geometry"/>
        </mxCell>
        <mxCell id="YwXMWWYpCBF7NSYcL3_9-11" value="" style="endArrow=classic;html=1;exitX=1;exitY=0.5;exitDx=0;exitDy=0;entryX=0;entryY=0.5;entryDx=0;entryDy=0;" parent="1" source="YwXMWWYpCBF7NSYcL3_9-9" target="YwXMWWYpCBF7NSYcL3_9-13" edge="1">
          <mxGeometry width="50" height="50" relative="1" as="geometry">
            <mxPoint x="340" y="250" as="sourcePoint"/>
            <mxPoint x="480" y="160" as="targetPoint"/>
          </mxGeometry>
        </mxCell>
        <mxCell id="YwXMWWYpCBF7NSYcL3_9-12" value="" style="endArrow=classic;html=1;exitX=0.5;exitY=1;exitDx=0;exitDy=0;" parent="1" source="YwXMWWYpCBF7NSYcL3_9-9" edge="1">
          <mxGeometry width="50" height="50" relative="1" as="geometry">
            <mxPoint x="340" y="250" as="sourcePoint"/>
            <mxPoint x="400" y="200" as="targetPoint"/>
          </mxGeometry>
        </mxCell>
        <mxCell id="YwXMWWYpCBF7NSYcL3_9-13" value="" style="shape=parallelogram;perimeter=parallelogramPerimeter;whiteSpace=wrap;html=1;" parent="1" vertex="1">
          <mxGeometry x="480" y="140" width="120" height="40" as="geometry"/>
        </mxCell>
        <mxCell id="YwXMWWYpCBF7NSYcL3_9-14" value="YES" style="text;html=1;strokeColor=none;fillColor=none;align=center;verticalAlign=middle;whiteSpace=wrap;rounded=0;" parent="1" vertex="1">
          <mxGeometry x="456.5" y="140" width="40" height="20" as="geometry"/>
        </mxCell>
        <mxCell id="YwXMWWYpCBF7NSYcL3_9-15" value="Return 1" style="text;html=1;strokeColor=none;fillColor=none;align=center;verticalAlign=middle;whiteSpace=wrap;rounded=0;" parent="1" vertex="1">
          <mxGeometry x="510" y="150" width="60" height="20" as="geometry"/>
        </mxCell>
        <mxCell id="YwXMWWYpCBF7NSYcL3_9-16" value="NO" style="text;html=1;strokeColor=none;fillColor=none;align=center;verticalAlign=middle;whiteSpace=wrap;rounded=0;" parent="1" vertex="1">
          <mxGeometry x="360" y="180" width="40" height="20" as="geometry"/>
        </mxCell>
        <mxCell id="YwXMWWYpCBF7NSYcL3_9-17" value="" style="rounded=1;whiteSpace=wrap;html=1;" parent="1" vertex="1">
          <mxGeometry x="340" y="200" width="120" height="40" as="geometry"/>
        </mxCell>
        <mxCell id="YwXMWWYpCBF7NSYcL3_9-18" value="Associate the value 1 to variable &quot;a&quot; and &quot;b&quot;" style="text;html=1;strokeColor=none;fillColor=none;align=center;verticalAlign=middle;whiteSpace=wrap;rounded=0;" parent="1" vertex="1">
          <mxGeometry x="340" y="210" width="120" height="20" as="geometry"/>
        </mxCell>
        <mxCell id="YwXMWWYpCBF7NSYcL3_9-19" value="" style="endArrow=classic;html=1;exitX=0.5;exitY=1;exitDx=0;exitDy=0;" parent="1" source="YwXMWWYpCBF7NSYcL3_9-17" target="YwXMWWYpCBF7NSYcL3_9-20" edge="1">
          <mxGeometry width="50" height="50" relative="1" as="geometry">
            <mxPoint x="340" y="310" as="sourcePoint"/>
            <mxPoint x="400" y="260" as="targetPoint"/>
          </mxGeometry>
        </mxCell>
        <mxCell id="YwXMWWYpCBF7NSYcL3_9-20" value="" style="rounded=1;whiteSpace=wrap;html=1;" parent="1" vertex="1">
          <mxGeometry x="340" y="260" width="120" height="40" as="geometry"/>
        </mxCell>
        <mxCell id="YwXMWWYpCBF7NSYcL3_9-21" value="Associate to varable &quot;c&quot; the sum a+b" style="text;html=1;strokeColor=none;fillColor=none;align=center;verticalAlign=middle;whiteSpace=wrap;rounded=0;" parent="1" vertex="1">
          <mxGeometry x="340" y="270" width="120" height="20" as="geometry"/>
        </mxCell>
        <mxCell id="YwXMWWYpCBF7NSYcL3_9-22" value="" style="endArrow=classic;html=1;exitX=0.5;exitY=1;exitDx=0;exitDy=0;" parent="1" source="YwXMWWYpCBF7NSYcL3_9-20" edge="1">
          <mxGeometry width="50" height="50" relative="1" as="geometry">
            <mxPoint x="340" y="370" as="sourcePoint"/>
            <mxPoint x="400" y="320" as="targetPoint"/>
          </mxGeometry>
        </mxCell>
        <mxCell id="YwXMWWYpCBF7NSYcL3_9-23" value="" style="rhombus;whiteSpace=wrap;html=1;" parent="1" vertex="1">
          <mxGeometry x="340" y="320" width="120" height="40" as="geometry"/>
        </mxCell>
        <mxCell id="YwXMWWYpCBF7NSYcL3_9-25" value="" style="rounded=1;whiteSpace=wrap;html=1;" parent="1" vertex="1">
          <mxGeometry x="340" y="380" width="120" height="40" as="geometry"/>
        </mxCell>
        <mxCell id="YwXMWWYpCBF7NSYcL3_9-26" value="" style="endArrow=classic;html=1;exitX=0.5;exitY=1;exitDx=0;exitDy=0;" parent="1" source="YwXMWWYpCBF7NSYcL3_9-25" edge="1">
          <mxGeometry width="50" height="50" relative="1" as="geometry">
            <mxPoint x="340" y="490" as="sourcePoint"/>
            <mxPoint x="400" y="440" as="targetPoint"/>
          </mxGeometry>
        </mxCell>
        <mxCell id="YwXMWWYpCBF7NSYcL3_9-27" value="" style="rounded=1;whiteSpace=wrap;html=1;" parent="1" vertex="1">
          <mxGeometry x="340" y="440" width="120" height="40" as="geometry"/>
        </mxCell>
        <mxCell id="YwXMWWYpCBF7NSYcL3_9-28" value="" style="endArrow=classic;html=1;exitX=0;exitY=0.5;exitDx=0;exitDy=0;entryX=0;entryY=0.5;entryDx=0;entryDy=0;" parent="1" source="YwXMWWYpCBF7NSYcL3_9-27" target="YwXMWWYpCBF7NSYcL3_9-21" edge="1">
          <mxGeometry width="50" height="50" relative="1" as="geometry">
            <mxPoint x="340" y="550" as="sourcePoint"/>
            <mxPoint x="300" y="460" as="targetPoint"/>
            <Array as="points">
              <mxPoint x="320" y="460"/>
              <mxPoint x="320" y="280"/>
            </Array>
          </mxGeometry>
        </mxCell>
        <mxCell id="YwXMWWYpCBF7NSYcL3_9-29" value="" style="endArrow=classic;html=1;exitX=1;exitY=0.5;exitDx=0;exitDy=0;entryX=0;entryY=0.5;entryDx=0;entryDy=0;" parent="1" source="YwXMWWYpCBF7NSYcL3_9-23" target="YwXMWWYpCBF7NSYcL3_9-30" edge="1">
          <mxGeometry width="50" height="50" relative="1" as="geometry">
            <mxPoint x="310" y="550" as="sourcePoint"/>
            <mxPoint x="480" y="340" as="targetPoint"/>
          </mxGeometry>
        </mxCell>
        <mxCell id="YwXMWWYpCBF7NSYcL3_9-30" value="" style="shape=parallelogram;perimeter=parallelogramPerimeter;whiteSpace=wrap;html=1;" parent="1" vertex="1">
          <mxGeometry x="480" y="320" width="120" height="40" as="geometry"/>
        </mxCell>
        <mxCell id="YwXMWWYpCBF7NSYcL3_9-31" value="" style="endArrow=classic;html=1;exitX=0.5;exitY=0;exitDx=0;exitDy=0;entryX=0.5;entryY=1;entryDx=0;entryDy=0;" parent="1" source="YwXMWWYpCBF7NSYcL3_9-30" target="YwXMWWYpCBF7NSYcL3_9-32" edge="1">
          <mxGeometry width="50" height="50" relative="1" as="geometry">
            <mxPoint x="310" y="550" as="sourcePoint"/>
            <mxPoint x="680" y="340" as="targetPoint"/>
          </mxGeometry>
        </mxCell>
        <mxCell id="YwXMWWYpCBF7NSYcL3_9-32" value="" style="ellipse;whiteSpace=wrap;html=1;" parent="1" vertex="1">
          <mxGeometry x="480" y="222.5" width="120" height="45" as="geometry"/>
        </mxCell>
        <mxCell id="YwXMWWYpCBF7NSYcL3_9-35" value="" style="endArrow=classic;html=1;exitX=0.5;exitY=1;exitDx=0;exitDy=0;" parent="1" source="YwXMWWYpCBF7NSYcL3_9-13" target="YwXMWWYpCBF7NSYcL3_9-32" edge="1">
          <mxGeometry width="50" height="50" relative="1" as="geometry">
            <mxPoint x="130" y="250" as="sourcePoint"/>
            <mxPoint x="360" y="500" as="targetPoint"/>
          </mxGeometry>
        </mxCell>
        <mxCell id="YwXMWWYpCBF7NSYcL3_9-36" value="n is less than or equal to 3" style="text;html=1;strokeColor=none;fillColor=none;align=center;verticalAlign=middle;whiteSpace=wrap;rounded=0;" parent="1" vertex="1">
          <mxGeometry x="357.5" y="330" width="85" height="20" as="geometry"/>
        </mxCell>
        <mxCell id="YwXMWWYpCBF7NSYcL3_9-37" value="Assigne the value b to &quot;a&quot; and the value c to &quot;a&quot;" style="text;html=1;strokeColor=none;fillColor=none;align=center;verticalAlign=middle;whiteSpace=wrap;rounded=0;" parent="1" vertex="1">
          <mxGeometry x="342.5" y="390" width="115" height="20" as="geometry"/>
        </mxCell>
        <mxCell id="YwXMWWYpCBF7NSYcL3_9-38" value="Decrease the value &quot;n&quot; by 1" style="text;html=1;strokeColor=none;fillColor=none;align=center;verticalAlign=middle;whiteSpace=wrap;rounded=0;" parent="1" vertex="1">
          <mxGeometry x="360" y="450" width="80" height="20" as="geometry"/>
        </mxCell>
        <mxCell id="YwXMWWYpCBF7NSYcL3_9-39" value="Return c" style="text;html=1;strokeColor=none;fillColor=none;align=center;verticalAlign=middle;whiteSpace=wrap;rounded=0;" parent="1" vertex="1">
          <mxGeometry x="510" y="330" width="60" height="20" as="geometry"/>
        </mxCell>
        <mxCell id="YwXMWWYpCBF7NSYcL3_9-40" value="NO" style="text;html=1;strokeColor=none;fillColor=none;align=center;verticalAlign=middle;whiteSpace=wrap;rounded=0;" parent="1" vertex="1">
          <mxGeometry x="360" y="360" width="40" height="20" as="geometry"/>
        </mxCell>
        <mxCell id="YwXMWWYpCBF7NSYcL3_9-41" value="" style="endArrow=classic;html=1;exitX=0.5;exitY=1;exitDx=0;exitDy=0;entryX=0.5;entryY=0;entryDx=0;entryDy=0;" parent="1" source="YwXMWWYpCBF7NSYcL3_9-23" target="YwXMWWYpCBF7NSYcL3_9-25" edge="1">
          <mxGeometry width="50" height="50" relative="1" as="geometry">
            <mxPoint x="400" y="360" as="sourcePoint"/>
            <mxPoint x="400" y="380" as="targetPoint"/>
          </mxGeometry>
        </mxCell>
        <mxCell id="YwXMWWYpCBF7NSYcL3_9-42" value="YES" style="text;html=1;strokeColor=none;fillColor=none;align=center;verticalAlign=middle;whiteSpace=wrap;rounded=0;" parent="1" vertex="1">
          <mxGeometry x="456.5" y="320" width="40" height="20" as="geometry"/>
        </mxCell>
        <mxCell id="YwXMWWYpCBF7NSYcL3_9-43" value="END" style="text;html=1;strokeColor=none;fillColor=none;align=center;verticalAlign=middle;whiteSpace=wrap;rounded=0;" parent="1" vertex="1">
          <mxGeometry x="520" y="235" width="40" height="20" as="geometry"/>
        </mxCell>
      </root>
    </mxGraphModel>
  </diagram>
</mxfile>
